<?xml version="1.0" encoding="UTF-8" standalone="no"?>
<!-- Created with Inkscape (http://www.inkscape.org/) -->

<svg
   xmlns:dc="http://purl.org/dc/elements/1.1/"
   xmlns:cc="http://creativecommons.org/ns#"
   xmlns:rdf="http://www.w3.org/1999/02/22-rdf-syntax-ns#"
   xmlns:svg="http://www.w3.org/2000/svg"
   xmlns="http://www.w3.org/2000/svg"
   version="1.1"
   width="648.78961"
   height="238.73625"
   id="svg2"
   xml:space="preserve"><metadata
     id="metadata8"><rdf:RDF><cc:Work
         rdf:about=""><dc:format>image/svg+xml</dc:format><dc:type
           rdf:resource="http://purl.org/dc/dcmitype/StillImage" /><dc:title></dc:title></cc:Work></rdf:RDF></metadata><defs
     id="defs6" /><g
     transform="matrix(1.25,0,0,-1.25,-2.9527104,238.73625)"
     id="g10"><g
       transform="scale(0.1,0.1)"
       id="g12"><path
         d="m 850.348,970.781 c 49.547,0 88.351,38.719 88.351,88.139 0,49.43 -38.804,88.14 -88.351,88.14 -49.485,0 -88.246,-38.71 -88.246,-88.14 0,-48.6 39.582,-88.139 88.246,-88.139"
         id="path132"
         style="fill:#7abd30;fill-opacity:1;fill-rule:nonzero;stroke:none" /><path
         d="m 1255.52,983.398 c 52.7,0 95.57,42.692 95.57,95.172 0,52.7 -42.87,95.57 -95.57,95.57 -53.6,0 -95.58,-41.98 -95.58,-95.57 0,-52.48 42.88,-95.172 95.58,-95.172"
         id="path134"
         style="fill:#7abd30;fill-opacity:1;fill-rule:nonzero;stroke:none" /><path
         d="m 1246.28,641.129 c 1,-2.277 2.83,-4.18 5.21,-5.211 L 1573.64,496.43 1133.21,439.641 1246.28,641.129 z M 966.777,228.332 c -2.746,1.109 -5.832,0.957 -8.433,-0.434 l -84.696,-44.859 34.188,117.281 58.828,-2.672 30.399,-69.16 c 1.527,-3.468 4.887,-5.777 8.677,-5.957 3.84,-0.133 7.35,1.797 9.21,5.098 l 48,85.859 74.07,10.364 35.64,-157.911 -30.23,0 -39.72,58.731 c -2.71,4 -7.91,5.508 -12.34,3.527 l -58.8,-26.09 -64.793,26.223 z m 92.063,722.949 c 41.35,-61.761 109.82,-100.16 183.2,-102.16 l -83.46,-166.262 -108.02,-199.23 -11.76,440.23 c 6.7,8.27 13.48,17.539 20.04,27.422 z M 853.113,841.602 c 29.602,0 59.039,5.238 87.711,15.597 l 4.489,-303.14 -124.415,289.711 c 10.895,-1.418 21.918,-2.168 32.215,-2.168 z m 0,377.228 c 84.821,0 153.827,-66.09 153.827,-147.31 0,-80.801 -69.006,-146.54 -153.827,-146.54 -85.004,0 -154.164,65.739 -154.164,146.54 0,81.22 69.16,147.31 154.164,147.31 z m 394.957,18.49 c 80.65,0 146.26,-67.88 146.26,-151.31 0,-83.42 -65.61,-151.299 -146.26,-151.299 -80.65,0 -146.27,67.879 -146.27,151.299 0,83.43 65.62,151.31 146.27,151.31 z m 173.21,186.87 c -1.65,-2.34 -2.22,-5.27 -1.57,-8.05 0.65,-2.79 2.47,-5.17 4.98,-6.52 l 349.47,-188.91 -267.66,-212.76 c -2.48,-1.98 -3.87,-5 -3.77,-8.161 0.1,-3.16 1.69,-6.09 4.3,-7.891 l 255.44,-177.23 -508.3,-159.496 137.64,245.269 c 54.68,45.008 87.27,114.229 87.27,185.569 0,130.73 -103.64,237.07 -231.01,237.07 -81.74,0 -157.78,-45.4 -198.14,-116.98 -45.3,59.85 -119.184,96.4 -196.817,96.4 -132.386,0 -240.09,-103.62 -240.09,-230.98 0,-38.81 9.204,-75.508 26.45,-105.809 13.195,-25.211 32.707,-48.75 56.507,-68.18 L 914.906,412.059 325.094,477.039 667.73,669.762 c 3.122,1.75 5.067,5.039 5.098,8.629 0.027,3.578 -1.855,6.898 -4.945,8.718 l -356.852,209 204.473,151.501 c 2.363,1.74 3.832,4.45 4.027,7.38 0.192,2.93 -0.918,5.8 -3.031,7.84 l -204.496,197.64 173.062,57.88 c 4.844,1.62 7.688,6.63 6.598,11.62 -10.098,46.09 -31.496,140.18 -47.875,187.35 l 409.723,-183.83 c 4.715,-2.12 10.261,-0.3 12.797,4.2 l 207.741,367.52 109.86,-201.1 c 2,-3.67 6.02,-5.68 10.21,-5.11 l 311.87,45.01 -84.71,-119.82 z m -381.49,-1267.702 27.87,-27.859 -78.629,0 50.759,27.859 z m 941.58,635.481 -318.29,215.781 282.15,221.12 c 2.62,2.05 4.04,5.25 3.81,8.56 -0.23,3.31 -2.08,6.29 -4.95,7.96 l -374.27,217.31 141.75,200.2 c 2.3,3.24 2.45,7.54 0.4,10.95 -2.05,3.4 -5.96,5.29 -9.86,4.74 l -461.87,-60.49 -157.14,286.6 c -1.75,3.17 -5.07,5.16 -8.69,5.19 -0.03,0 -0.05,0 -0.08,0 -3.59,0 -6.91,-1.92 -8.69,-5.05 l -254.394,-445.7 -481.027,225.65 c -3.34,1.58 -7.27,1.18 -10.231,-1.03 -2.953,-2.21 -4.457,-5.86 -3.902,-9.51 l 41.644,-276.39 -249.515,-73.3 c -3.481,-1.02 -6.129,-3.84 -6.938,-7.36 -0.804,-3.54 0.368,-7.23 3.055,-9.65 L 368.395,1069.38 138.809,882.168 c -2.571,-2.098 -3.93,-5.328 -3.645,-8.629 0.289,-3.301 2.191,-6.238 5.078,-7.859 L 462.043,685.719 28.4336,422.512 c -3.6406,-2.211 -5.4805,-6.481 -4.5898,-10.641 0.8906,-4.172 4.3203,-7.301 8.5429,-7.832 L 808.586,307.371 759.98,173.648 439.176,179.121 c -3.274,-0.043 -5.895,-1.269 -7.828,-3.57 -1.938,-2.313 -2.735,-5.371 -2.164,-8.332 l 14.683,-75.9104 c 0.824,-4.25 4.281,-7.4883 8.574,-8.0273 L 1115.08,0.0820313 C 1115.5,0.03125 1115.92,0 1116.33,0 c 4.91,0 9.17,3.58984 9.89,8.57031 l 4.78,33.10159 551.5,69.0471 c 2.71,0.34 5.15,1.761 6.77,3.941 1.63,2.168 2.3,4.922 1.86,7.602 l -14.9,90.879 c -0.87,5.289 -5.78,8.941 -11.08,8.308 l -401.51,-48.879 -31.76,177.098 619.27,101.684 c 4.32,0.699 7.69,4.16 8.28,8.5 0.6,4.347 -1.71,8.578 -5.68,10.418 l -338.98,157.921 463.99,145.957 c 3.66,1.153 6.34,4.301 6.89,8.09 0.56,3.793 -1.1,7.571 -4.28,9.731"
         id="path136"
         style="fill:#7abd30;fill-opacity:1;fill-rule:nonzero;stroke:none" /><path
         d="m 4392.52,1327.55 c 15.81,0 33.67,1.38 53.26,4.12 -2.27,-5.01 -3.5,-10.01 -3.5,-14.62 0,-18.03 12.1,-29.69 30.85,-29.69 7.85,0 15.25,1.33 23.99,4.31 6.02,2.04 10.81,6.87 12.78,12.92 0.92,2.81 1.7,5.26 2.38,7.43 3.62,-0.12 7.29,-0.2 11.06,-0.2 17.22,0 43.7,4.52 80.86,13.77 9.92,-28.62 16.24,-61.08 18.81,-96.65 -14.54,-7.87 -24.44,-14.01 -29.35,-18.21 -11.6,-9.43 -21.3,-23.44 -30.52,-44.07 -2.67,-6 -2.27,-12.95 1.07,-18.62 3.35,-5.66 9.27,-9.37 15.81,-9.91 l 23.11,-1.92 c 0.48,-0.03 1.87,-0.07 2.37,-0.07 7.25,0 15.35,1.39 24.59,4.23 1.76,-14.92 3.94,-32.49 6.93,-52.94 4.91,-34.15 7.2,-58.5 7.21,-76.52 l -0.02,-1.89 c -5.39,-2.26 -10.7,-4.42 -15.94,-6.48 -2.82,14.14 -13.09,35.81 -49.47,35.81 -15.74,0 -30.84,-6.95 -42.52,-19.52 -0.42,-0.46 -0.82,-0.93 -1.11,-1.32 -11.11,-14.2 -16.51,-28.311 -16.51,-43.119 0,-16.672 6.8,-29.942 19.19,-37.641 5.53,-12.781 10.45,-23.648 15.04,-33.191 4.65,-9.637 16.96,-14.188 26.86,-9.61 22.78,10.59 45.55,20.692 67.75,30.063 2.96,-2.532 6.38,-4.66 10.21,-6.364 3.91,-6.808 9.51,-13.617 16.17,-19.699 3.94,-4.969 7.16,-9.597 10.1,-13.847 2.62,-3.774 4.94,-7.071 7.08,-9.774 3.88,-4.867 9.67,-7.656 15.89,-7.656 2.22,0 4.4,0.359 6.48,1.058 8.07,2.731 13.63,10.27 13.85,19.411 0.15,6.461 0.37,15.097 0.74,19.347 0.63,1.391 1.11,2.852 1.43,4.371 2.18,10.52 3.28,18.602 3.28,24 0,2.301 -0.17,4.61 -0.51,6.93 1.78,5 2.79,10.449 2.99,16.262 76.06,26.508 137.77,39.398 188.55,39.398 21.33,0 39.27,-2.859 53.35,-8.519 6.92,-2.75 15.11,-1.399 20.77,3.429 15.16,12.991 27,33.321 36.2,62.171 9.32,28.9 13.66,50.67 13.66,68.53 0,23.15 -14.21,33.51 -28.3,33.51 -17.55,0 -32.16,-12.28 -50,-32.02 -0.4,-0.43 -0.77,-0.88 -1.17,-1.39 l -6.56,-8.68 c -7.25,-9.59 -14.74,-19.5 -21.93,-27.87 -2.02,-1.05 -9.58,-3.59 -37.58,-7.89 -21.15,-0.99 -40.75,-3.09 -58.83,-5.22 -0.94,-0.11 -1.88,-0.29 -2.74,-0.52 -41.61,-10.92 -80.74,-22.29 -116.45,-33.84 -3.28,18.21 -4.94,39.46 -6.23,59.68 -0.19,20.85 -0.3,41.15 -0.41,61.11 l -0.04,6.8 c 69.85,10.66 122.9,28.1 162.03,53.25 7.38,4.75 10.88,13.65 8.68,22.16 -1.74,6.75 -6.84,12.15 -13.44,14.27 -0.55,0.34 -1.18,0.75 -1.89,1.22 l -1.2,0.78 c -2.64,1.72 -5.9,3.82 -9.4,5.89 -12.86,9.26 -20.44,13.68 -28.85,13.68 -15.37,0 -37.11,-4.62 -66.59,-14.16 -21.62,-7.53 -40.03,-11.35 -54.9,-11.36 l -0.44,-0.05 -11.55,1.1 c -3.65,21.5 -6.9,43.09 -10.44,66.58 -1.51,10.1 -3.05,20.3 -4.63,30.6 63.15,17.05 103.29,26.89 121.54,31.35 l 3.81,0.94 c 50.53,11.85 99.32,18.12 141.1,18.12 14.69,0 17.24,-4.79 18.15,-7.33 2.66,-16.94 5.43,-33.63 9.82,-51.39 1.55,-6.34 6.11,-11.57 12.16,-13.98 5.98,-2.43 12.99,-1.76 18.48,1.73 17.11,10.91 27.21,21.71 31.83,34.08 2.35,6.67 4,15.06 4.91,24.98 9.37,2.21 17.84,6.91 24.53,13.55 7.03,6.07 10.66,14.86 16.66,29.39 l 3.36,8.04 c 2.39,5.7 2.08,12.08 -0.86,17.54 -2.94,5.45 -8.12,9.21 -14.2,10.33 -11.57,2.12 -20.23,6.52 -25.06,12.71 -10.3,13.21 -18.84,22.22 -23.06,25.95 -0.88,0.76 -1.81,1.44 -2.78,2.03 -15.35,9.43 -37.24,13.64 -71.01,13.64 -69.05,0 -170.63,-15.34 -301.94,-45.59 -163.41,-37.83 -251.51,-75.47 -277.23,-118.49 -3.75,-6.27 -3.84,-14.11 -0.24,-20.44 3.6,-6.36 10.37,-10.3 17.67,-10.3"
         id="path138"
         style="fill:#7abd30;fill-opacity:1;fill-rule:nonzero;stroke:none" /><path
         d="m 3617.79,847.191 c 3.81,-5.109 9.9,-8.16 16.27,-8.16 3.1,0 6.21,0.731 9,2.11 16.09,7.968 30.81,18.738 43.89,32.191 3.21,3.527 6.97,8.719 13.5,17.719 4.15,5.75 9.31,12.879 15.51,21.179 29.94,38.942 84.61,74.918 162.46,106.93 75.51,30.64 139.13,46.65 194.52,48.94 5.49,0.23 10.73,2.72 14.36,6.83 3.66,4.11 5.49,9.61 5.05,15.08 -13.49,170 -29.39,212.17 -41.72,229.91 -4.43,6.39 -12.3,9.82 -20.05,8.45 -5.44,-0.91 -14.12,-3.82 -37.13,-18.39 -10.46,-6.35 -18.91,-10.21 -26.39,-12.09 -1.82,-0.39 -16.42,-2.56 -50.18,-5.28 -38.67,-3.75 -52.11,-7.75 -59.86,-17.63 -6.56,-7.89 -6.56,-16.72 -6.56,-22.56 0,-9.08 4.68,-20.52 17.55,-26.62 3.81,-8.21 13.7,-16.73 38.3,-16.73 7.26,0 23.43,2.32 65.09,9.4 l 0.1,-14.4 c 0.53,-20.48 -0.52,-41.61 -3.13,-62.88 -94.93,-36.89 -168.18,-69.46 -213.2,-94.77 0.14,17.02 2.17,48.02 12.01,92.18 7.86,44.6 13.1,78.91 13.1,101.35 0,6.17 -0.92,11.87 -1.96,18.26 -0.47,2.87 -0.96,5.89 -1.33,9.09 -0.12,1.08 -0.34,2.15 -0.64,3.25 -1.52,5.31 -3.36,11.74 -6.25,17.58 30.43,75.8 55.53,140.34 74.74,192.19 8.89,-24.47 13.54,-58.5 13.54,-99.68 0,-9.19 6.21,-17.26 15.11,-19.63 l 37.58,-9.99 c 1.2,-0.32 2.43,-0.52 3.66,-0.62 4.02,-7.62 7.89,-14.85 11.62,-21.8 3.44,-6.41 10.53,-10.62 18.15,-10.72 11.17,0.03 20.27,9.15 20.27,20.32 0,2.03 -0.31,4.02 -0.88,5.94 -3.7,23.43 -7.77,47 -11.84,70.58 l -0.38,2.22 c -4.39,25.46 -8.95,51.78 -12.96,77.62 -0.08,0.53 -0.18,1.06 -0.32,1.62 -16.63,69.12 -44.35,115.14 -82.38,136.78 -7.78,4.44 -18.08,3.04 -24.41,-3.27 -11.26,-11.25 -26.04,-29.11 -44.91,-52.61 -31.27,-41.67 -36.84,-52.86 -36.84,-63.51 0,-13.65 -7.48,-68.8 -76.87,-285.58 -51.92,-167.3 -77.16,-271.388 -77.16,-318.228 0,-22.672 6.98,-42.551 21.97,-62.571"
         id="path140"
         style="fill:#7abd30;fill-opacity:1;fill-rule:nonzero;stroke:none" /><path
         d="m 3190.82,1368.35 c 4.17,0 7.88,0.7 11.7,1.42 2.64,0.5 5.83,1.11 9.98,1.48 0.94,0.09 1.86,0.23 2.75,0.45 7.41,1.71 12.64,2.01 15.26,2.03 0.18,-0.94 0.38,-2.61 0.38,-5.39 0,-20.62 -5.54,-62.25 -31.97,-143.61 -24.19,-78.76 -32.94,-118.71 -31.22,-141.97 l 0,-16.08 c -3.71,-8.09 -7.65,-24.32 -7.65,-71.442 0,-32.578 0.22,-61.347 2.92,-83.468 0.89,-7.329 5.69,-13.602 12.51,-16.36 2.45,-1.012 5.03,-1.519 7.65,-1.519 4.6,0 9.12,1.597 12.73,4.488 l 19.2,15.422 16.7,-1.121 c 9.44,-1.071 18.37,5.308 21.06,14.539 34.09,116.331 57.41,214.301 69.46,291.731 5.71,-13.22 12.08,-26.99 19.03,-41.16 33.82,-67.41 48.1,-101.67 53.7,-116.41 7.22,-22.81 14.69,-46.38 20.48,-68.892 0.15,-0.609 0.33,-1.187 0.53,-1.75 10.3,-29.179 20.38,-52.558 30.82,-71.476 3.87,-7.024 11.87,-11.203 19.61,-10.41 2.53,0.218 4.93,0.476 7.19,0.73 5.48,0.59 11.5,0.777 12.26,0.629 2.68,-0.609 5.51,-0.629 8.35,-0.082 13.75,2.73 29.83,12.949 74.89,106.661 32.54,66.52 46.2,104.61 51.54,121.7 5.46,21.03 8.97,52.07 11.02,97.66 2.32,45.54 5.17,72.25 9.45,89.22 0.13,0.45 0.24,0.92 0.31,1.38 0.93,2.33 4.12,8.9 5.71,12.17 0.32,0.65 0.6,1.3 0.86,2 l 0.87,2.37 c 2.68,7.33 5.22,14.26 5.22,22.24 0,6.18 -1.42,12.59 -3.43,21.64 l -1.66,7.64 c -1.12,5.34 -4.42,10.08 -9.07,13.01 -4.61,2.88 -10.23,3.8 -15.62,2.52 -9.96,-2.44 -19.9,-4.82 -29.94,-7.12 -0.54,-0.13 -1.1,-0.28 -1.75,-0.49 -18.64,-6.11 -29.33,-21.45 -29.33,-42.07 0,-7.87 2.32,-16.28 5.53,-27.89 1.82,-7.2 2.75,-13.69 2.75,-19.31 0,-40.84 -11.67,-98.47 -34.72,-171.39 -20.38,-68.21 -38.37,-104.11 -51.51,-122.99 -11.66,33.43 -27.09,70.1 -45.01,106.87 -23.76,47.81 -43.37,90.37 -52.51,113.96 -6.15,14.95 -13.23,42.5 -22.88,88.91 -5.67,40.16 -15.59,74.42 -28.8,99.3 -7.29,12.46 -18.05,19.91 -27.62,25.54 -1.85,1.09 -3.87,1.89 -5.18,2.12 l -3.2,1.27 c -4.12,1.66 -11.77,4.75 -22.49,8.35 -7.92,2.7 -17.3,-0.12 -22.47,-6.74 l -9.18,-11.73 c -16.99,-0.38 -32.12,-0.84 -45.54,-1.24 l -2.76,-0.09 c -17.09,-0.52 -33.23,-1.02 -45.62,-1.02 -7.02,0 -13.45,-3.56 -17.19,-9.49 -3.75,-5.95 -4.17,-13.28 -1.13,-19.61 14.34,-29.95 35.14,-47.13 57.03,-47.13"
         id="path142"
         style="fill:#7abd30;fill-opacity:1;fill-rule:nonzero;stroke:none" /><path
         d="m 2315.95,879.73 c 40.27,-23.421 83.17,-35.82 124.07,-35.82 30.66,0 59.55,8.371 88.25,25.539 36.74,21.469 55.37,48.551 55.37,80.492 0,35.68 -14.86,94.749 -44.15,175.539 -23.82,66.13 -49.28,123.17 -73.39,164.51 -6.52,13.49 -19.14,30.73 -40.77,55.73 -17.89,21.99 -30.94,38.37 -35.98,48.98 l -13.98,28.43 c -9.56,19.41 -17.87,36.3 -24.68,50.57 l 54.65,10.21 c 39.08,7.3 70.51,13.16 94.41,17.79 8.67,1.68 15.23,8.7 16.29,17.47 2.41,19.59 6.88,32.19 8.19,35.57 2.28,5.91 1.65,12.65 -1.69,18.02 -3.33,5.39 -9.09,8.96 -15.41,9.54 l -21.97,1.99 c -25.41,0.93 -55.49,-4.99 -92.2,-17.78 -33.81,-11.2 -60.31,-16.87 -78.74,-16.87 -6.86,0 -25.67,1.51 -52.24,15.67 l -1.62,0.77 c -35.15,16.75 -52.8,25.16 -60.98,27.83 -5.09,1.65 -10.82,1.22 -15.57,-1.23 -4.78,-2.44 -8.46,-6.78 -10.1,-11.91 -8.04,-25.3 -8.04,-33.33 -8.04,-36.36 0,-2.82 0.23,-5.61 0.7,-8.36 -24.15,-3.04 -48.24,-7.69 -73.04,-14.08 -17.67,-3.11 -48.38,-11.44 -102.69,-27.86 -6.96,-2.11 -12.3,-7.81 -13.92,-14.9 l -7.66,-33.39 c -1.44,-6.25 0.19,-12.89 4.35,-17.76 3.87,-4.52 9.49,-7.1 15.43,-7.1 0.15,0 1.28,0.03 1.43,0.04 29.73,2.08 70.91,9.82 118.83,22.33 55.94,12.2 88.95,17.17 113.94,17.17 7.43,0 14.69,-0.61 21.63,-1.81 3.58,-6.45 7.12,-12.85 10.66,-19.83 0.3,-0.6 0.64,-1.19 1.02,-1.79 8.41,-13.08 18.36,-21.62 30.37,-26.08 24.48,-37.24 57.87,-113.03 102.03,-231.57 40.9,-107.16 65.6,-184.99 73.45,-231.49 -39.37,-15.051 -49.84,-15.231 -50.28,-15.231 -8.46,0 -34.09,7.09 -110.75,54.711 -80.96,47.96 -96.59,67.99 -98.85,71.44 -5.21,8.18 -8.79,14.48 -11.27,19.81 -0.67,1.45 -1.53,2.83 -2.57,4.15 -7.83,9.79 -18.98,21.03 -35.86,21.03 -11.46,0 -24.95,-3.98 -41.25,-12.14 -6.92,-3.47 -11.21,-10.43 -11.21,-18.17 l 0,-37.22 c 0,-8.32 4.98,-15.72 12.69,-18.83 24.43,-9.89 57.89,-31.23 99.34,-63.332 49.84,-40.386 86.35,-63.929 103.76,-74.418"
         id="path144"
         style="fill:#7abd30;fill-opacity:1;fill-rule:nonzero;stroke:none" /><path
         d="m 4408.04,489.141 c -0.28,15.007 -1.07,27.777 -1.76,39.058 l -0.08,1.383 c 8.56,0.656 16.66,1.457 24.69,2.438 15.99,2.289 26.86,2.64 31.92,2.64 21.01,0 44.8,-10.582 70.77,-31.512 14.82,-11.769 18.09,-15.867 18.7,-17.179 0.61,-1.649 2.72,-8.418 5.1,-28.84 -28.28,-16.848 -75.19,-45.598 -142.95,-89.649 -3.48,-2.25 -6.95,-4.46 -10.38,-6.671 4.24,21.992 6.39,45.519 6.39,70.031 0,13.16 -0.25,33.57 -2.4,58.301 z m -11.73,181.82 c -4.25,28.039 -10.15,52.301 -17.6,72.371 34.69,-3.141 66.37,-6.504 94.47,-10.023 -1.72,-1.469 -3.41,-2.848 -5.05,-4.149 -8.74,-6.672 -16.94,-13.551 -25.35,-20.59 -8.26,-6.941 -16.07,-13.5 -25.31,-20.519 -7.26,-6.172 -14.34,-11.903 -21.16,-17.09 z m 815.12,102.519 c -2.77,5.032 -7.55,8.68 -13.14,9.989 -7.78,1.84 -13.61,4 -18.05,5.652 l -1.47,0.547 c -2.73,2.543 -5.15,5.594 -7.33,9.152 -10.76,22.051 -32.18,34.961 -63.6,38.36 -18.64,2.269 -43.02,2.308 -71.73,0.09 -120.87,-8.282 -240.56,-31.961 -355.86,-70.411 -21.36,-7.449 -39.89,-13.789 -55.49,-19.078 6.99,7.539 12.95,20.02 5.55,38.547 -0.64,1.582 -1.45,3.051 -2.4,4.34 l -7.72,10.66 c -3.81,5.25 -9.97,8.391 -16.45,8.391 -9.44,0 -18.85,-1.207 -32.86,-4.258 -10.29,-2.973 -17.8,-4.051 -20.34,-4.051 -9.82,0 -23.34,2.129 -45.28,7.149 -7.76,1.722 -14.76,3.32 -20.87,4.722 -16.59,3.789 -24.13,5.481 -28.62,5.93 -28.62,4.59 -65.55,5.527 -112.79,5.527 -0.15,0 -0.29,0 -0.44,0 -39.86,1.731 -59.15,1.641 -66.19,-0.148 -40.18,-3.41 -64.25,-5.879 -80.21,-8.211 -34.03,-3.399 -62.56,-5.75 -86.17,-7.699 -10.05,-0.821 -19.02,-1.559 -26.92,-2.258 -6.14,-0.543 -11.61,-3.781 -15.04,-8.863 -3.43,-5.09 -4.39,-11.379 -2.61,-17.258 1.85,-6.071 3.59,-11.52 5.22,-16.582 1.47,-4.547 3.92,-12.18 4.14,-12.989 0.42,-10.968 9.33,-19.55 20.29,-19.55 29.92,0 82.16,4.281 155.31,12.711 1.71,-5.063 3.21,-9.61 4.54,-13.653 l 0.37,-1.109 c 1.43,-4.34 2.66,-8.039 3.7,-11.098 0.81,-5.25 1.34,-9.351 1.68,-12.461 -4.82,-7.371 -4.82,-14.961 -4.82,-18.379 0,-11.3 4.27,-21.921 13.03,-32.41 5.01,-14.621 8.13,-30.84 9.31,-48.301 -3.05,-0.929 -6.19,-1.992 -9.56,-3.121 -2.56,-0.859 -5.2,-1.757 -7.98,-2.64 -9.7,-3.09 -15.64,-12.969 -13.82,-22.981 l 3.48,-19.218 c -16.22,-9.29 -34.32,-22.688 -34.32,-44.192 0,-12.68 8.06,-25.199 23.31,-36.219 4.26,-3.078 9.74,-4.41 15.15,-3.57 l 6.55,1.031 c 9.96,1.539 16.54,2.551 23.33,7.43 2.74,2.199 5.35,4.309 7.83,6.328 3.65,-28.687 6.38,-51.148 8.32,-67.219 l 0.34,-2.769 c 0.79,-6.57 1.46,-11.988 1.99,-16.238 -4.34,-8.743 -3.85,-17.313 -3.64,-21.051 0.9,-20.922 13.94,-29.512 19.49,-32.231 3.69,-1.808 7.49,-3.09 11.54,-3.879 0.34,-0.492 0.7,-0.972 1.08,-1.429 3.87,-4.66 9.61,-7.332 15.74,-7.332 0.17,0 1.14,0.031 1.3,0.039 l 5.55,0.41 c 4.31,0.332 9.81,0.711 15.19,0.793 -41.09,-26.152 -77.03,-48.363 -104.52,-63.274 -42.33,-20.527 -80.96,-38.839 -114.8,-54.418 -1.12,-0.511 -2.19,-1.128 -3.21,-1.851 -16.65,-11.719 -29.84,-22.34 -38.13,-30.668 -0.73,-0.731 -1.3,-1.199 -1.69,-1.492 -11.57,-0.078 -21.34,-3.778 -28.24,-10.699 -7.02,-7.04 -10.73,-17.02 -10.69,-28.391 l -0.08,-1.25 c -0.24,-3.469 -0.42,-6.219 -1.15,-7.988 -3.78,-9.442 0.05,-20.313 8.91,-25.282 14.33,-8.05 27.22,-12.32 37.26,-12.32 12.61,0 24.61,4.992 35.28,14.492 29.03,22.078 68.2,44.391 127.05,72.348 1.41,0.672 2.7,1.492 3.88,2.43 9.05,7.179 16.89,14.152 22.75,20.191 48.04,26.879 83.31,44.961 114.26,58.609 1.37,0.602 2.66,1.352 3.86,2.243 10.36,7.648 19.37,14.07 27.04,19.527 6.9,4.922 12.75,9.09 16.71,12.152 32.28,17.289 57.55,30.309 82.26,42.36 33.87,18.711 60.15,37.82 78.05,56.73 0.52,0.527 0.99,1.098 1.51,1.758 4.61,6.09 11.21,15.543 14.99,26.262 2.04,3.879 3.02,8.097 4.5,14.468 0.94,4.032 2.13,9.161 3.91,15.121 2.63,8.559 5.44,18.571 5.44,29.372 0,49.937 -35.83,86.988 -106.48,110.109 -25.05,8.238 -57.59,15.449 -96.89,21.527 18.46,13.524 33.65,24.774 45.68,33.703 3.66,-6.191 10.28,-10 17.5,-10 16.22,0 33.73,1.258 52.2,3.758 -1.77,-4.801 -2.68,-9.937 -2.68,-15.301 0,-14.058 9.56,-28.25 30.89,-28.25 6.48,0 16.16,0.473 25.36,4.461 4.49,1.93 8.13,5.442 10.24,9.852 1.53,3.199 2.89,6.25 4.06,9.117 3.98,-0.277 7.36,-0.418 10.38,-0.418 15.86,0 41,4.352 81.07,14.031 9.85,-27.812 16.14,-59.992 18.71,-95.82 -18.09,-10.223 -23.79,-13.812 -26.36,-15.601 -0.17,-0.098 -0.34,-0.219 -0.51,-0.329 -12.5,-9.132 -22.27,-23.902 -31.68,-47.902 -2.36,-6.039 -1.69,-12.898 1.8,-18.359 3.5,-5.461 9.44,-8.95 15.91,-9.328 20.33,-1.223 30.7,-1.301 37.04,-0.532 1.49,0.192 2.97,0.539 4.34,1.039 l 3.74,1.321 c 0.89,0.3 1.9,0.648 2.99,1.031 1.63,-17.211 4.38,-37.961 8.19,-61.832 3.7,-24.109 5.59,-47.449 5.64,-69.457 -36.02,-16 -68.47,-26.41 -96.48,-30.953 -6.2,-1 -11.68,-4.899 -14.66,-10.438 -2.96,-5.531 -3.19,-12.25 -0.62,-17.972 3.36,-7.438 6.42,-14.071 9.38,-20.489 4.69,-10.191 8.74,-18.992 10.13,-23.039 1.86,-5.429 5.96,-9.832 11.25,-12.09 5.28,-2.25 11.34,-2.14 16.52,0.258 147.28,68.422 263.07,103.121 344.11,103.121 19.53,0 38,-2.84 56.44,-8.679 7.15,-2.282 15.15,-0.332 20.48,4.961 12.81,12.769 22.06,28.589 28.15,48.046 12.2,32.68 18.93,61.102 18.93,80.043 0,33.778 -25.41,34.75 -28.3,34.75 -13.06,0 -30.25,-6.8 -67.3,-56.132 l -8.99,-12.219 c -8.02,-3.09 -21.43,-6.961 -41.62,-9.11 -28.79,-2.058 -46.38,-3.949 -54.23,-4.8 l -2.95,-0.309 c -1.43,-0.09 -2.85,-0.34 -4.24,-0.73 -45.3,-12.891 -84.88,-24.153 -115.24,-33.641 -3.36,19.461 -5.07,39.289 -5.27,60.578 -1.14,19.524 -1.84,40.801 -2.14,66.59 69.8,9.371 122.96,26.992 162.38,53.781 6.05,4.11 9.44,11.199 8.83,18.512 -0.61,7.309 -5.13,13.719 -11.79,16.758 -6.97,3.179 -10.38,5.082 -11.84,5.961 -8.85,10.519 -21.21,16.3 -34.94,16.3 -6.34,0 -12.93,-1.242 -18.8,-3.5 -47.57,-16.121 -83.38,-22.589 -109.64,-21.562 -5.58,31.172 -11.06,63.203 -16.72,97.57 50.58,13.211 101.09,24.922 154.08,35.75 56.9,10.114 93.65,15.032 112.36,15.032 8.63,0 13.62,-0.981 16.23,-1.77 0.87,-5.961 1.32,-11.449 1.32,-16.379 0.17,-13.16 4.14,-28.441 11.79,-45.391 2.47,-5.5 7.23,-9.582 13.05,-11.21 1.79,-0.5 3.62,-0.75 5.47,-0.75 4.13,0 8.1,1.242 11.47,3.55 2.16,1.481 4.11,2.86 6.64,4.66 l 1.61,1.161 c 1.37,1 2.48,1.82 2.47,1.898 2.26,0.84 4.35,2.082 6.25,3.711 l 0.81,0.699 c 5.21,4.512 15.91,13.77 14.45,27.52 1.17,6.691 2.13,13.019 2.86,18.91 13.02,2.609 24.13,9.922 30.95,20.48 2.91,4.352 8.7,14.282 14.84,31.911 1.89,5.429 1.39,11.429 -1.38,16.46"
         id="path146"
         style="fill:#7abd30;fill-opacity:1;fill-rule:nonzero;stroke:none" /><path
         d="m 3370.41,671.301 c 3.81,-5.332 10.02,-8.512 16.6,-8.512 0.16,0 1.28,0.039 1.45,0.051 33.98,2.539 66.87,11.308 100.49,26.781 53.64,24.258 79.85,35.231 83.69,36.5 1.09,0.231 2.17,0.539 3.18,0.93 17.89,6.789 43.35,13.988 77.61,21.937 -4.5,-14.976 -8.33,-26.699 -11.2,-35.457 -39.46,-136.992 -58.65,-237.691 -58.65,-307.851 0,-30.602 3.04,-59.442 9.26,-87.961 -29.12,-11.039 -56.9,-21.699 -79.07,-30.981 -33.85,81.301 -57.32,132.75 -75.81,166.211 -38.95,74.461 -86.5,137.621 -141.42,187.871 13.87,10.91 28.02,21.602 42.09,32.231 l 2.38,1.801 c 8.53,6.468 17.12,12.957 26.46,20.168 1.49,1.289 2.97,2.57 4.41,3.839 -1.27,-2.531 -2.48,-5.121 -3.61,-7.757 -2.77,-6.473 -1.95,-14.063 2.14,-19.801 z m -43.69,95.379 c -0.07,-0.481 -1.16,-6.211 -13.94,-18.418 -36.96,-35.211 -68.13,-56.063 -95.27,-63.723 -13.56,-1.41 -23.42,-1.699 -29.33,-1.699 -1.77,0 -3.39,0.019 -5.11,0.082 -3.97,-0.07 -7.51,-0.992 -10.54,-2.75 -3.46,-2.012 -6.62,-3.91 -9.54,-5.742 -9.06,42.058 -16.24,81.832 -21.86,121.07 24.58,-2.051 45.86,-3.789 63.82,-5.25 36.42,-2.961 65.19,-5.301 70.44,-6.441 45.37,-7.547 51.3,-17.149 51.33,-17.129 z m 618.03,-330.442 c -0.03,0 -1.21,-0.027 -1.24,-0.027 -13.12,-0.191 -23.49,-4.449 -31.63,-13.051 -91.17,-29.719 -163.72,-51.14 -221.23,-65.308 l 9.89,47.546 c 25.12,120.981 40.29,194 46.51,218.071 3.99,13.5 12.34,38.742 29.5,82.261 12.75,32.051 21.9,58.18 28.7,77.801 70.22,12.957 178.54,27.207 350.04,46.059 10.23,1.121 18.01,9.719 18.1,20.012 0.03,3.257 -0.72,6.398 -2.12,9.218 3.2,1.09 6.12,2.192 8.76,3.301 1.46,-0.91 3.04,-1.641 4.68,-2.16 l 40.39,-12.813 c 1.99,-0.636 4.07,-0.968 6.35,-0.968 11.2,0 20.32,9.121 20.32,20.32 0,2.461 -0.44,4.871 -1.31,7.148 l -2.2,9.891 c 1.38,2.109 2.36,4.481 2.88,6.981 3.76,18.109 13.78,30.57 31.58,39.261 0.6,0.297 1.18,0.61 1.71,0.949 14.68,9.079 34.01,13.68 57.43,13.68 8.43,0 18.81,-0.66 30.86,-1.988 0.67,-0.07 1.34,-0.121 1.9,-0.121 0,0 0.01,0 0.02,0 L 4392.42,942 c 7.43,-0.129 13.16,-0.23 17.72,-0.23 47.68,0 80.92,14.429 101.63,44.121 3.61,5.179 4.61,11.859 2.66,17.889 -1.95,6 -6.68,10.83 -12.64,12.92 -22.83,7.94 -53.58,11.65 -96.76,11.65 -45.22,0 -80.66,-5.45 -108.48,-16.69 -16.64,-7.04 -32.17,-13.16 -46.27,-18.23 -1.23,21.67 -3.33,55.15 -6.38,101.75 l -0.61,12.04 c -2.28,45.61 -4.26,85 -4.26,115.5 0,159.33 19.81,213.71 31.42,231.65 22.11,30.38 33.91,51.44 37.39,59.1 2.89,6.31 2.37,13.57 -1.39,19.42 -3.76,5.84 -10.15,9.33 -17.08,9.33 l -15.62,0 c -6.22,0 -12.3,-0.87 -18.19,-2.6 l -1.51,19.74 c -0.37,5.06 -2.62,9.78 -6.34,13.27 -9.72,9.15 -19.95,17.24 -30.38,24.09 -4.61,3.01 -10.33,4.04 -15.69,2.8 -5.36,-1.24 -10.06,-4.66 -12.88,-9.39 -30.99,-51.88 -50.98,-124.19 -61.15,-221.29 -5.46,-79.83 -10.51,-151.89 -17.04,-225.4 -0.44,-4.99 1.01,-10.04 4.02,-14.03 -1.15,-19.09 0.67,-43.03 5.99,-79.11 l 0.63,-4.62 c 4.63,-33.45 8.28,-59.848 8.28,-73.219 0,-17.563 -2.33,-35.223 -6.6,-50.012 l -60.81,-40.687 c -17.85,2.25 -30.28,3.859 -37.23,4.929 l -3.42,0.418 c -23.51,2.84 -40.5,4.903 -51.6,4.903 l -1.44,-0.032 c -0.69,-0.011 -1.4,-0.062 -2.03,-0.14 -15.46,-1.852 -37.06,-4.758 -67.21,-10.969 -54.32,-12.109 -106.9,-23.301 -123.77,-23.301 -20.13,0 -37.36,4.512 -52.68,13.801 -4.66,2.82 -10.38,3.68 -15.68,2.277 -5.29,-1.386 -9.86,-4.898 -12.56,-9.668 -9.86,-17.5 -26.62,-30.058 -50.95,-38.312 -35.67,-10.418 -67.55,-18.867 -94.77,-25.117 -48.82,-11.25 -81.46,-21.371 -102.85,-31.91 -12.79,-6.621 -24.04,-13.719 -33.89,-21.43 5.39,10.719 8.06,21.129 8.06,31.32 0,28.508 -21.1,52.489 -62.89,71.348 -53.46,22.359 -133.84,34.781 -238.96,36.902 -23.92,68.668 -36.04,149.309 -36.04,239.789 0,31.14 5.1,77.31 15.14,137.18 12.18,69.05 17.62,112.91 17.62,142.22 0,28.25 -10.07,52.41 -30.76,73.85 -5.92,6.14 -15.66,7.89 -23.25,4.29 -11.82,-5.55 -23.46,-15.65 -36.35,-31.47 -4.74,-5.03 -12.45,-8.56 -25.01,-11.41 -8.17,-1.85 -14.3,-8.4 -15.59,-16.69 -26.83,-172.86 -40.44,-299.57 -40.44,-376.59 0,-7.23 0.15,-14.62 0.43,-22.17 -17.27,-3.46 -41.15,-8.69 -76.3,-16.75 -37.11,-10.612 -68.36,-15.991 -92.89,-15.991 -19.23,0 -77.75,0 -77.75,160.231 0,52.68 7.67,111.61 22.19,170.46 24.5,100.53 55.33,123.95 71.52,128.97 7.34,2.27 12.71,8.39 14.01,15.96 1.3,7.56 -1.71,15.12 -7.86,19.72 -2.45,1.82 -11.3,8.79 -23.07,22.16 -11.41,12.03 -23.52,21.03 -34.12,25.36 -6.46,2.6 -14.18,1.64 -19.76,-2.49 -12.72,-9.44 -31.14,-18.47 -54.22,-26.69 -11.54,-2.99 -23.08,-6.34 -35.15,-9.86 -10.66,-3.08 -21.3,-6.17 -31.92,-8.94 -5.88,-1.54 -10.72,-5.58 -13.29,-11.09 -2.56,-5.51 -2.53,-11.82 0.08,-17.31 l 15.12,-31.73 c 3.86,-8.09 12.79,-12.89 21.94,-11.24 l 37.29,6.71 c -11.67,-51.36 -20.72,-93.46 -28.3,-131.81 -12.24,-61.41 -18.45,-118.06 -18.45,-168.39 0,-136.681 51.9,-205.978 154.28,-205.978 68.88,0 129.77,16.566 181.15,49.277 2.02,-18.32 4.69,-37.597 7.95,-57.48 0.52,-2.969 1.06,-5.949 1.62,-8.91 -12.72,3.179 -27.63,4.801 -44.49,4.801 -76.97,0 -160.63,-9.77 -255.53,-29.84 -33.96,-5.918 -109.15,-24.36 -243.84,-59.782 -90.14,-24.109 -172.24,-41.457 -244.01,-51.597 -5.65,-0.801 -10.74,-3.961 -13.95,-8.68 -3.22,-4.723 -4.3,-10.609 -2.97,-16.16 l 9.12,-38.109 c 2.08,-8.684 9.75,-15.071 18.66,-15.551 l 31.75,-1.711 4.39,-0.051 c 49.09,0 117.89,16.223 204.4,48.172 76.51,27.09 134.97,42.91 178.23,48.199 -37.74,-156.808 -56.88,-295.34 -56.88,-411.851 0,-111.45 20.98,-181.571 64.14,-214.368 5.15,-3.921 12.19,-5.16 18.37,-3.211 6.28,1.969 11.23,6.879 13.25,13.149 5.71,17.66 9.01,32.633 9.87,44.633 0.66,-0.461 1.33,-0.922 2,-1.371 6.34,-4.18 14.88,-4.422 21.48,-0.571 6.63,3.899 10.55,11.36 9.98,19.039 -0.44,5.789 -8.37,40.801 -18.45,81.422 -7.92,32.231 -11.95,56.5 -11.95,72.117 0,58.512 8.32,130.551 24.77,214.223 6.87,38.309 14.51,78.047 21.26,113.098 l 0.5,2.679 c 5.61,29.192 11.23,58.442 16.6,87.622 36.95,7.718 80.47,12.46 132.71,14.449 13.38,-31.309 33.87,-38.059 49.02,-38.059 7.43,0 15.53,0.899 25.03,2.781 -0.21,-1.511 -0.45,-3.031 -0.73,-4.531 -4.87,-19.488 -5.44,-32.672 -5.44,-40.89 0,-20.911 4.47,-39.469 13.64,-56.719 3.51,-6.641 10.44,-10.762 18.07,-10.762 0.72,0 1.45,0.031 2.3,0.109 37.87,4.551 57.07,18.34 57.07,41 0,17.864 0.74,36.512 2.2,55.602 5.47,-11.672 12.66,-21.719 21.47,-30 3.79,-3.609 12.11,-18.129 19.2,-49.281 2.17,-13.848 4.85,-28.61 8.37,-46.008 -21.29,-2.633 -37.39,-9.762 -47.94,-21.289 -0.58,-0.641 -1.13,-1.313 -1.65,-2.07 l -1.79,-2.692 c -6.68,-7.129 -18.79,-17.75 -38.61,-27.808 -5.06,-2.582 -8.83,-7.192 -10.36,-12.661 -1.53,-5.461 -0.68,-11.363 2.32,-16.191 13.01,-20.879 31.51,-44.859 59.35,-44.859 5.25,0 18.75,0.007 54.39,27.609 1.39,-8.211 2.84,-20.141 3.94,-37.25 7.83,-75.781 15.28,-133.609 19.78,-168.531 0.78,-6.047 4.2,-11.391 9.39,-14.629 5.09,-3.199 11.59,-3.93 17.26,-2.02 22.73,7.692 31.77,8.282 34,8.282 11.06,0 19.98,8.66 20.31,19.707 2.95,97.781 1.85,175.402 -3.43,243.671 15.72,5.899 27.94,8.649 38.19,8.649 5.05,0 9.31,-0.699 11.24,-1.391 0.66,-0.238 1.34,-0.437 1.98,-0.597 20.83,-5.161 66.47,-34.223 138.11,-170.911 54.24,-103.148 80.6,-178.339 80.6,-229.82 0,-2.34 -0.52,-4.851 -1.12,-7.738 -0.57,-2.801 -1.08,-5.442 -1.36,-7.981 -0.73,-6.793 1.99,-13.453 7.25,-17.812 14.13,-11.688 30.67,-21.969 47.79,-29.707 0.57,-0.274 1.16,-0.5 1.67,-0.672 9.37,-3.301 18.52,-7.129 27.38,-10.82 6.76,-2.821 13.39,-5.578 19.96,-8.078 2.31,-0.891 4.75,-1.34 7.23,-1.34 6.81,0 13.13,3.398 16.93,9.09 5.27,7.957 4.35,18.347 -2.25,25.257 -9.01,9.442 -16.59,19.43 -21.69,28.411 -0.59,1.64 -0.75,8.402 -0.83,11.652 -0.01,0.558 -0.05,1.117 -0.11,1.789 l -2.14,18.73 c 0,1.668 -0.02,3.188 -0.04,4.61 9.67,2.179 17.93,5.269 24.46,9.129 8.7,4.582 20.12,10.808 31.1,18.148 0.91,0.551 1.81,1.063 2.69,1.543 0.95,-18.441 1.93,-40.351 1.93,-64.43 0,-8.812 5.64,-16.57 14.01,-19.3 l 30.4,-9.961 c 2.07,-0.68 4.19,-1.02 6.51,-1.02 11.2,0 20.32,9.121 20.32,20.32 0,1.442 -0.15,2.891 -0.46,4.321 -5.47,75.199 -2.66,97.449 -0.95,103.82 4.67,2.649 21.14,10.449 71.84,24.02 17.75,5.39 35.54,10.269 54.46,15.48 13.61,3.738 27.34,7.508 41.8,11.719 44.89,15.039 83.35,22.351 117.61,22.351 9.37,0 17.47,6.36 19.72,15.45 2.91,11.757 3.15,21.429 3.15,29.558 0,45.61 -26.04,50.539 -37.23,50.539"
         id="path148"
         style="fill:#7abd30;fill-opacity:1;fill-rule:nonzero;stroke:none" /></g></g></svg>